<svg xmlns="http://www.w3.org/2000/svg" xmlns:xlink="http://www.w3.org/1999/xlink" xmlns:lucid="lucid" width="2833" height="1354"><g transform="translate(-4480 -1752)" lucid:page-tab-id="0_0"><path d="M0-500h9000v5000H0z" fill="#fff"/><path d="M4600 1846a6 6 0 0 1 6-6h228a6 6 0 0 1 6 6v8a14.48 14.48 0 0 1-4.24 10.24l-1.52 1.52A14.48 14.48 0 0 1 4824 1870h-218a6 6 0 0 1-6-6z" fill="#fff"/><path d="M4840 1840v20l-10 10h-230" stroke="#000" fill="none"/><path d="M4600 1846a6 6 0 0 1 6-6h2588a6 6 0 0 1 6 6v1168a6 6 0 0 1-6 6H4606a6 6 0 0 1-6-6z" stroke="#000" fill="none"/><use xlink:href="#a" transform="matrix(1,0,0,1,4608,1840) translate(0 19.444444444444443)"/><use xlink:href="#b" transform="matrix(1,0,0,1,4608,1840) translate(62.8395061728395 19.444444444444443)"/><use xlink:href="#c" transform="matrix(1,0,0,1,4608,1840) translate(76.35802469135803 19.444444444444443)"/><use xlink:href="#d" transform="matrix(1,0,0,1,4608,1840) translate(134.3827160493827 19.444444444444443)"/><path d="M4680 2020c0 11.05-8.95 20-20 20s-20-8.95-20-20 8.95-20 20-20 20 8.95 20 20z"/><path d="M4677.28 2029.97l-2.64 3.66-3.85 3.2-.84.4m-4.8 1.98l-3.72.75-1.44.05-4.96-.62-.2-.08m-4.8-2.02l-3.67-2.64-3.2-3.85-.4-.84m-1.98-4.8l-.75-3.73-.05-1.43.62-4.96.08-.2m2.02-4.8l2.64-3.67 3.85-3.2.84-.4m4.8-1.98l3.72-.75 1.44-.05 4.96.62.2.08m4.8 2.02l3.67 2.64 3.2 3.85.4.84m1.98 4.8l.75 3.73.05 1.43-.62 4.96-.08.2M4681 2020h1462.12" stroke="#333" fill="none"/><path d="M4681 2020.47h-.56l.06-.45-.02-.5h.53z" stroke="#333" stroke-width=".05" fill="#333"/><path d="M6157.88 2020l-14.26 4.63v-9.27z" stroke="#333" fill="#333"/><use xlink:href="#e" transform="matrix(1,0,0,1,5382.125806968623,1999.8671874999998) translate(0.005000000000002558 12.916666666666668)"/><use xlink:href="#f" transform="matrix(1,0,0,1,5382.125806968623,1999.8671874999998) translate(30.07661458333334 12.916666666666668)"/><path d="M6182 1965c-12.15 0-22 9.85-22 22v66c0 12.15 9.85 22 22 22h236c12.15 0 22-9.85 22-22v-66c0-12.15-9.85-22-22-22z" stroke="#333" fill="#fff"/><use xlink:href="#g" transform="matrix(1,0,0,1,6168,1973) translate(11.342447916666657 43.78385416666667)"/><use xlink:href="#h" transform="matrix(1,0,0,1,6168,1973) translate(119.17447916666667 43.78385416666667)"/><use xlink:href="#i" transform="matrix(1,0,0,1,6168,1973) translate(131.74609375 43.78385416666667)"/><use xlink:href="#j" transform="matrix(1,0,0,1,6168,1973) translate(72.703125 59.91666666666667)"/><use xlink:href="#h" transform="matrix(1,0,0,1,6168,1973) translate(109.3046875 59.91666666666667)"/><use xlink:href="#k" transform="matrix(1,0,0,1,6168,1973) translate(121.87630208333334 59.91666666666667)"/><path d="M6441 2020h5.15m5.15 0h10.3m5.15 0h10.3m5.16 0h10.3m5.16 0h10.3m5.15 0h10.3m5.16 0h10.3m5.16 0h10.3m5.15 0h10.3m5.15 0h10.3m5.15 0h10.3m5.15 0h10.3m5.16 0h5.15" stroke="#333" fill="none"/><path d="M6441 2020.47h-.5v-.94h.5z" stroke="#333" stroke-width=".05" fill="#333"/><path d="M6641.2 2020l-14.27 4.63v-9.27z" stroke="#333" fill="#333"/><path d="M6654.34 2005.66a8 8 0 0 1 11.32 0l8.68 8.68a8 8 0 0 1 0 11.32l-8.68 8.68a8 8 0 0 1-11.32 0l-8.68-8.68a8 8 0 0 1 0-11.32z" stroke="#333" fill="#fff"/><path d="M6677.7 2020h228.73" stroke="#333" fill="none"/><path d="M6677.7 2020.47h-.55l.04-.47-.05-.47h.55z" stroke="#333" stroke-width=".05" fill="#333"/><path d="M6921.2 2020l-14.27 4.63v-9.27z" stroke="#333" fill="#333"/><use xlink:href="#l" transform="matrix(1,0,0,1,6740.91796875,1999.8671874999998) translate(0.005000000000002558 12.916666666666668)"/><path d="M6934.34 2005.66a8 8 0 0 1 11.32 0l8.68 8.68a8 8 0 0 1 0 11.32l-8.68 8.68a8 8 0 0 1-11.32 0l-8.68-8.68a8 8 0 0 1 0-11.32z" stroke="#333" fill="#fff"/><path d="M6660.48 2186.43h-.95v-58.36h.95zm0-74.5h-.95v-74.24h.95z" stroke="#333" stroke-width=".05" fill="#333"/><path d="M6660 2037.2l.48-.05v.55h-.95v-.55z" fill="#333"/><path stroke="#333" stroke-width=".05" fill="#333"/><path d="M6660 2201.2l-4.64-14.27h9.28z" fill="#333"/><path d="M6660 2202.73l-5.3-16.28h10.6zm-3.98-15.33l3.98 12.26 3.98-12.26z" stroke="#333" stroke-width=".05" fill="#333"/><use xlink:href="#m" transform="matrix(1,0,0,1,6557.044270833333,2111.93359375) translate(0.0049999999999954525 12.916666666666668)"/><path d="M6654.34 2205.66a8 8 0 0 1 11.32 0l8.68 8.68a8 8 0 0 1 0 11.32l-8.68 8.68a8 8 0 0 1-11.32 0l-8.68-8.68a8 8 0 0 1 0-11.32z" stroke="#333" fill="#fff"/><path d="M6940 2002.3v-65.8a12 12 0 0 0-12-12h-616a12 12 0 0 0-12 12v11.62" stroke="#000" fill="none"/><path d="M6940.48 2002.85l-.48-.04-.48.05v-.55h.95z" stroke="#000" stroke-width=".05"/><path d="M6300 1962.88l-4.64-14.26h9.28z" stroke="#000"/><use xlink:href="#n" transform="matrix(1,0,0,1,6948,1958.209087339738) translate(0.0049999999999954525 12.916666666666668)"/><use xlink:href="#o" transform="matrix(1,0,0,1,6948,1958.209087339738) translate(122.36177083333335 12.916666666666668)"/><use xlink:href="#p" transform="matrix(1,0,0,1,6948,1958.209087339738) translate(134.93989583333337 12.916666666666668)"/><path d="M6940 2037.7v95.42" stroke="#000" fill="none"/><path d="M6940 2037.2l.48-.05v.55h-.95v-.55z" stroke="#000" stroke-width=".05"/><path d="M6940 2147.88l-4.64-14.26h9.28z" stroke="#000"/><use xlink:href="#n" transform="matrix(1,0,0,1,6948.000000000001,2068.184634755955) translate(0.0049999999999954525 12.916666666666668)"/><use xlink:href="#o" transform="matrix(1,0,0,1,6948.000000000001,2068.184634755955) translate(122.36177083333335 12.916666666666668)"/><use xlink:href="#q" transform="matrix(1,0,0,1,6948.000000000001,2068.184634755955) translate(134.93989583333337 12.916666666666668)"/><path d="M6888 2150c-9.94 0-18 8.06-18 18v54c0 9.94 8.06 18 18 18h104c9.94 0 18-8.06 18-18v-54c0-9.94-8.06-18-18-18z" stroke="#333" fill="#fff"/><use xlink:href="#r" transform="matrix(1,0,0,1,6878,2158) translate(19.87434895833333 41.85026041666667)"/><use xlink:href="#h" transform="matrix(1,0,0,1,6878,2158) translate(56.47591145833333 41.85026041666667)"/><use xlink:href="#s" transform="matrix(1,0,0,1,6878,2158) translate(69.04752604166666 41.85026041666667)"/><path d="M6940 2241v302.12" stroke="#333" fill="none"/><path d="M6940.48 2241h-.95v-.5h.95z" stroke="#333" stroke-width=".05" fill="#333"/><path d="M6940 2557.88l-4.64-14.26h9.28z" stroke="#333" fill="#333"/><path d="M6960 2580c0 11.05-8.95 20-20 20s-20-8.95-20-20 8.95-20 20-20 20 8.95 20 20z" stroke="#333" fill="#fff"/><path d="M6952 2580c0 6.63-5.37 12-12 12s-12-5.37-12-12 5.37-12 12-12 12 5.37 12 12z" stroke="#333"/><path d="M6642.3 2220H6296.9" stroke="#333" fill="none"/><path d="M6642.8 2220l.05.47h-.55v-.94h.55z" stroke="#333" stroke-width=".05" fill="#333"/><path d="M6282.12 2220l14.26-4.64v9.28z" stroke="#333" fill="#333"/><use xlink:href="#t" transform="matrix(1,0,0,1,6355.158639118864,2199.8671875) translate(0.0049999999999954525 12.916666666666668)"/><use xlink:href="#o" transform="matrix(1,0,0,1,6355.158639118864,2199.8671875) translate(211.24197916666665 12.916666666666668)"/><use xlink:href="#u" transform="matrix(1,0,0,1,6355.158639118864,2199.8671875) translate(223.82010416666665 12.916666666666668)"/><path d="M6116 2180c-8.84 0-16 7.16-16 16v48c0 8.84 7.16 16 16 16h148c8.84 0 16-7.16 16-16v-48c0-8.84-7.16-16-16-16z" stroke="#333" fill="#fff"/><use xlink:href="#r" transform="matrix(1,0,0,1,6108,2188) translate(9.158203124999986 36.85026041666667)"/><use xlink:href="#h" transform="matrix(1,0,0,1,6108,2188) translate(45.759765624999986 36.85026041666667)"/><use xlink:href="#v" transform="matrix(1,0,0,1,6108,2188) translate(58.33138020833332 36.85026041666667)"/><path d="M6105.75 2349.5c-8.84 0-16 7.16-16 16v48c0 8.84 7.16 16 16 16h148c8.84 0 16-7.16 16-16v-48c0-8.84-7.16-16-16-16z" stroke="#333" fill="#fff"/><use xlink:href="#r" transform="matrix(1,0,0,1,6097.749844073045,2357.5) translate(28.26302083333333 36.85026041666667)"/><use xlink:href="#h" transform="matrix(1,0,0,1,6097.749844073045,2357.5) translate(64.86458333333333 36.85026041666667)"/><use xlink:href="#w" transform="matrix(1,0,0,1,6097.749844073045,2357.5) translate(77.43619791666666 36.85026041666667)"/><path d="M6286.63 2389.5H6648a12 12 0 0 0 12-12v-139.8" stroke="#333" fill="none"/><path d="M6271.87 2389.5l14.26-4.64v9.28z" stroke="#333" fill="#333"/><path d="M6660 2237.2l.48-.05v.55h-.95v-.55z" stroke="#333" stroke-width=".05" fill="#333"/><use xlink:href="#t" transform="matrix(1,0,0,1,6352.405042122704,2369.3671875) translate(0.0049999999999954525 12.916666666666668)"/><use xlink:href="#o" transform="matrix(1,0,0,1,6352.405042122704,2369.3671875) translate(211.24197916666665 12.916666666666668)"/><use xlink:href="#x" transform="matrix(1,0,0,1,6352.405042122704,2369.3671875) translate(223.82010416666665 12.916666666666668)"/><path d="M6300.48 2162.52l-.16 1.93-.45 1.9-.75 1.8-1.03 1.68-1.28 1.5-1.5 1.26-1.66 1.02-1.8.75-1.9.45-1.94.15h-325.75l-1.82.15-1.76.42-1.68.7-1.54.94-1.38 1.17-1.17 1.38-.95 1.54-.7 1.67-.4 1.76-.15 1.82v295.96l.14 1.82.42 1.76.68 1.67.95 1.54 1.17 1.38 1.38 1.17 1.54.95 1.67.7 1.75.4 1.82.16h685.7l1.83-.15 1.76-.42 1.67-.7 1.54-.94 1.38-1.17 1.17-1.38.95-1.54.7-1.67.4-1.76.15-1.82v-244.8h.95v244.84l-.15 1.93-.45 1.9-.75 1.8-1.03 1.68-1.28 1.5-1.5 1.26-1.66 1.02-1.8.75-1.9.45-1.94.15h-685.8l-1.92-.15-1.9-.45-1.8-.75-1.68-1.03-1.5-1.28-1.26-1.5-1.03-1.66-.75-1.8-.45-1.9-.16-1.94v-296.04l.16-1.93.45-1.9.75-1.8 1.03-1.68 1.27-1.5 1.5-1.26 1.66-1.02 1.8-.75 1.9-.45 1.93-.15h325.75l1.82-.15 1.76-.42 1.67-.7 1.54-.94 1.38-1.17 1.17-1.38.95-1.54.7-1.67.4-1.76.15-1.82v-70.6h.95z" stroke="#333" stroke-width=".05" fill="#333"/><path d="M6660 2237.2l.48-.05v.55h-.95v-.55z" fill="#333"/><path stroke="#333" stroke-width=".05" fill="#333"/><path d="M6304.64 2091.38h-9.28l4.64-14.26z" fill="#333"/><path d="M6305.3 2091.86h-10.6l5.3-16.28zm-9.28-.95h7.96l-3.98-12.24z" stroke="#333" stroke-width=".05" fill="#333"/><use xlink:href="#t" transform="matrix(1,0,0,1,6349.15391855296,2474.3671875) translate(0.0049999999999954525 12.916666666666668)"/><use xlink:href="#o" transform="matrix(1,0,0,1,6349.15391855296,2474.3671875) translate(211.24197916666665 12.916666666666668)"/><use xlink:href="#y" transform="matrix(1,0,0,1,6349.15391855296,2474.3671875) translate(223.82010416666665 12.916666666666668)"/><path d="M6179.75 2430.5V2568a12 12 0 0 0 12 12h711.37" stroke="#333" fill="none"/><path d="M6180.23 2430.5h-.95v-.5h.95z" stroke="#333" stroke-width=".05" fill="#333"/><path d="M6917.88 2580l-14.26 4.64v-9.28z" stroke="#333" fill="#333"/><path d="M5562.3 2220h-451.54" stroke="#333" fill="none"/><path d="M5562.8 2220l.05.47h-.55v-.94h.55z" stroke="#333" stroke-width=".05" fill="#333"/><path d="M5096 2220l14.26-4.64v9.28z" stroke="#333" fill="#333"/><use xlink:href="#l" transform="matrix(1,0,0,1,5235.641361617059,2199.8671875) translate(0.005000000000002558 12.916666666666668)"/><path d="M5071.53 2205.66a8 8 0 0 1 11.32 0l8.68 8.68a8 8 0 0 1 0 11.32l-8.68 8.68a8 8 0 0 1-11.32 0l-8.68-8.68a8 8 0 0 1 0-11.32z" stroke="#333" fill="#fff"/><path d="M5077.2 2202.3v-40.8a12 12 0 0 1 12-12H6178a12 12 0 0 1 12 12v1.62" stroke="#333" fill="none"/><path d="M5077.66 2202.85l-.47-.04-.5.05v-.55h.96z" stroke="#333" stroke-width=".05" fill="#333"/><path d="M6190 2177.88l-4.64-14.26h9.28z" stroke="#333" fill="#333"/><use xlink:href="#n" transform="matrix(1,0,0,1,5450.160201289039,2153.5) translate(0.0049999999999954525 12.916666666666668)"/><use xlink:href="#o" transform="matrix(1,0,0,1,5450.160201289039,2153.5) translate(122.36177083333335 12.916666666666668)"/><use xlink:href="#p" transform="matrix(1,0,0,1,5450.160201289039,2153.5) translate(134.93989583333337 12.916666666666668)"/><path d="M5077.66 2363.12h-.95v-46.7h.96zm0-62.84h-.95v-62.6h.96z" stroke="#333" stroke-width=".05" fill="#333"/><path d="M5077.2 2237.2l.46-.05v.55h-.95v-.55z" fill="#333"/><path stroke="#333" stroke-width=".05" fill="#333"/><path d="M5077.2 2377.88l-4.65-14.26h9.27z" fill="#333"/><path d="M5077.2 2379.42l-5.3-16.28h10.58zm-4-15.33l4 12.24 3.97-12.25z" stroke="#333" stroke-width=".05" fill="#333"/><use xlink:href="#n" transform="matrix(1,0,0,1,4997.236634827637,2300.2774971013187) translate(0.0049999999999954525 12.916666666666668)"/><use xlink:href="#o" transform="matrix(1,0,0,1,4997.236634827637,2300.2774971013187) translate(122.36177083333335 12.916666666666668)"/><use xlink:href="#q" transform="matrix(1,0,0,1,4997.236634827637,2300.2774971013187) translate(134.93989583333337 12.916666666666668)"/><path d="M4993.2 2380c-8.85 0-16 7.16-16 16v48c0 8.84 7.15 16 16 16h168c8.82 0 16-7.16 16-16v-48c0-8.84-7.18-16-16-16z" stroke="#333" fill="#fff"/><use xlink:href="#r" transform="matrix(1,0,0,1,4985.187806702637,2388) translate(36.86653645833333 36.85026041666667)"/><use xlink:href="#h" transform="matrix(1,0,0,1,4985.187806702637,2388) translate(73.46809895833333 36.85026041666667)"/><use xlink:href="#z" transform="matrix(1,0,0,1,4985.187806702637,2388) translate(86.03971354166666 36.85026041666667)"/><path d="M6099 2220h-5.06m-5.05 0h-10.13m-5.05 0h-10.12m-5.05 0h-10.1m-5.07 0h-10.1m-5.07 0h-10.1m-5.06 0h-10.1m-5.07 0h-10.1m-5.07 0h-10.1m-5.07 0h-10.1m-5.07 0h-10.1m-5.07 0h-10.12m-5.06 0h-10.1m-5.07 0h-10.1m-5.07 0h-10.1m-5.07 0h-10.1m-5.06 0h-10.1m-5.07 0h-10.1m-5.07 0h-10.1m-5.07 0h-10.1m-5.07 0h-10.1m-5.07 0h-10.12m-5.06 0h-10.1m-5.07 0h-10.1m-5.07 0h-10.1m-5.06 0h-10.12m-5.05 0h-10.12m-5.05 0h-10.12m-5.05 0h-10.1m-5.06 0h-10.12m-5.05 0h-10.12m-5.05 0h-10.1m-5.07 0h-5.06" stroke="#333" fill="none"/><path d="M6099.5 2220.47h-.5v-.94h.5z" stroke="#333" stroke-width=".05" fill="#333"/><path d="M5598.8 2220l14.27-4.64v9.28z" stroke="#333" fill="#333"/><path d="M5574.34 2205.66a8 8 0 0 1 11.32 0l8.68 8.68a8 8 0 0 1 0 11.32l-8.68 8.68a8 8 0 0 1-11.32 0l-8.68-8.68a8 8 0 0 1 0-11.32z" stroke="#333" fill="#fff"/><path d="M5580.48 2366.43h-.95v-48.36h.95zm0-64.5h-.95v-64.24h.95z" stroke="#333" stroke-width=".05" fill="#333"/><path d="M5580 2237.2l.48-.05v.55h-.95v-.55z" fill="#333"/><path stroke="#333" stroke-width=".05" fill="#333"/><path d="M5580 2381.2l-4.64-14.27h9.28z" fill="#333"/><path d="M5580 2382.73l-5.3-16.28h10.6zm-3.98-15.33l3.98 12.26 3.98-12.26z" stroke="#333" stroke-width=".05" fill="#333"/><use xlink:href="#m" transform="matrix(1,0,0,1,5477.044270833333,2301.93359375) translate(0.0049999999999954525 12.916666666666668)"/><path d="M5574.34 2385.66a8 8 0 0 1 11.32 0l8.68 8.68a8 8 0 0 1 0 11.32l-8.68 8.68a8 8 0 0 1-11.32 0l-8.68-8.68a8 8 0 0 1 0-11.32z" stroke="#333" fill="#fff"/><path d="M6190.48 2298.02l-.16 1.93-.45 1.9-.75 1.8-1.03 1.68-1.28 1.5-1.5 1.26-1.66 1.02-1.8.75-1.9.45-1.94.15h-256l-1.82.15-1.76.42-1.67.7-1.54.94-1.38 1.17-1.17 1.38-.95 1.54-.7 1.67-.4 1.76-.15 1.82v106l-.16 1.93-.45 1.9-.75 1.8-1.03 1.68-1.28 1.5-1.5 1.26-1.66 1.02-1.8.75-1.9.45-1.94.15h-306.04l-1.93-.15-1.9-.45-1.8-.75-1.68-1.03-1.5-1.28-1.26-1.5-1.02-1.66-.75-1.8-.45-1.9-.16-1.94v-10.33h.95v10.28l.15 1.82.42 1.76.7 1.67.94 1.54 1.17 1.38 1.38 1.17 1.54.95 1.67.7 1.76.4 1.82.16h305.96l1.82-.15 1.76-.42 1.67-.7 1.54-.94 1.38-1.17 1.17-1.38.95-1.54.7-1.67.4-1.76.15-1.82v-106l.16-1.93.45-1.9.75-1.8 1.03-1.68 1.28-1.5 1.5-1.26 1.66-1.02 1.8-.75 1.9-.45 1.94-.15h256l1.82-.15 1.76-.42 1.67-.7 1.54-.94 1.38-1.17 1.17-1.38.95-1.54.7-1.67.4-1.76.15-1.82v-21.1h.95z" stroke="#333" stroke-width=".05" fill="#333"/><path d="M5580 2417.2l.48-.05v.55h-.95v-.55z" fill="#333"/><path stroke="#333" stroke-width=".05" fill="#333"/><path d="M6194.64 2276.38h-9.28l4.64-14.26z" fill="#333"/><path d="M6195.3 2276.86h-10.6l5.3-16.28zm-9.28-.95h7.96l-3.98-12.24z" stroke="#333" stroke-width=".05" fill="#333"/><use xlink:href="#t" transform="matrix(1,0,0,1,5606.892064002316,2419.8671875) translate(0.0049999999999954525 12.916666666666668)"/><use xlink:href="#o" transform="matrix(1,0,0,1,5606.892064002316,2419.8671875) translate(211.24197916666665 12.916666666666668)"/><use xlink:href="#u" transform="matrix(1,0,0,1,5606.892064002316,2419.8671875) translate(223.82010416666665 12.916666666666668)"/><path d="M5580 2417.7V2568a12 12 0 0 0 12 12h445.25a12 12 0 0 0 12-12v-166.5a12 12 0 0 1 12-12h11.62" stroke="#333" fill="none"/><path d="M5580 2417.2l.48-.05v.55h-.95v-.55z" stroke="#333" stroke-width=".05" fill="#333"/><path d="M6087.63 2389.5l-14.26 4.64v-9.28z" stroke="#333" fill="#333"/><g><use xlink:href="#t" transform="matrix(1,0,0,1,5612.094734477691,2559.8671875) translate(0.0049999999999954525 12.916666666666668)"/><use xlink:href="#o" transform="matrix(1,0,0,1,5612.094734477691,2559.8671875) translate(211.24197916666665 12.916666666666668)"/><use xlink:href="#x" transform="matrix(1,0,0,1,5612.094734477691,2559.8671875) translate(223.82010416666665 12.916666666666668)"/></g><path d="M5077.2 2461v4.72m0 4.72v9.43m0 4.72v9.43m0 4.72v9.43m0 4.72v9.44m0 4.7v9.45m0 4.7v4.73" stroke="#333" fill="none"/><path d="M5077.66 2461h-.95v-.5h.96z" stroke="#333" stroke-width=".05" fill="#333"/><path d="M5077.2 2560.7l-4.65-14.27h9.27z" stroke="#333" fill="#333"/><path d="M5071.53 2565.16a8 8 0 0 1 11.32 0l8.68 8.68a8 8 0 0 1 0 11.32l-8.68 8.68a8 8 0 0 1-11.32 0l-8.68-8.68a8 8 0 0 1 0-11.32z" stroke="#333" fill="#fff"/><path d="M5059.5 2579.5h-170.3a12 12 0 0 0-12 12v94.43" stroke="#333" fill="none"/><path d="M5060 2579.5l.04.47h-.55v-.94h.54z" stroke="#333" stroke-width=".05" fill="#333"/><path d="M4877.2 2700.7l-4.65-14.27h9.27z" stroke="#333" fill="#333"/><g><use xlink:href="#A" transform="matrix(1,0,0,1,4908.295333827715,2559.3671875) translate(0.005000000000002558 12.916666666666668)"/></g><path d="M4871.53 2705.16a8 8 0 0 1 11.32 0l8.68 8.68a8 8 0 0 1 0 11.32l-8.68 8.68a8 8 0 0 1-11.32 0l-8.68-8.68a8 8 0 0 1 0-11.32z" stroke="#333" fill="#fff"/><path d="M5094.88 2579.5h170.3a12 12 0 0 1 12 12v94.43" stroke="#333" fill="none"/><path d="M5094.9 2579.97h-.56l.04-.47-.04-.47h.55z" stroke="#333" stroke-width=".05" fill="#333"/><path d="M5277.2 2700.7l-4.65-14.27h9.27z" stroke="#333" fill="#333"/><g><use xlink:href="#B" transform="matrix(1,0,0,1,5124.349221782038,2559.3671875) translate(0.0049999999999954525 12.916666666666668)"/></g><path d="M5271.53 2705.16a8 8 0 0 1 11.32 0l8.68 8.68a8 8 0 0 1 0 11.32l-8.68 8.68a8 8 0 0 1-11.32 0l-8.68-8.68a8 8 0 0 1 0-11.32z" stroke="#333" fill="#fff"/><path d="M4859.5 2719.5H4772a12 12 0 0 1-12-12V2432a12 12 0 0 1 12-12h188.3" stroke="#333" fill="none"/><path d="M4860 2719.5l.04.47h-.55v-.94h.54z" stroke="#333" stroke-width=".05" fill="#333"/><path d="M4975.07 2420l-14.27 4.64v-9.28z" stroke="#333" fill="#333"/><path d="M5259.5 2719.5h-210.3a12 12 0 0 0-12 12v91.12" stroke="#333" fill="none"/><path d="M5260 2719.5l.04.47h-.55v-.94h.54z" stroke="#333" stroke-width=".05" fill="#333"/><path d="M5037.2 2837.38l-4.65-14.26h9.27z" stroke="#333" fill="#333"/><g><use xlink:href="#C" transform="matrix(1,0,0,1,5026.997806691204,2683.234375) translate(108.10070312500002 12.916666666666668)"/><use xlink:href="#D" transform="matrix(1,0,0,1,5026.997806691204,2683.234375) translate(0.0049999999999954525 29.049479166666668)"/><use xlink:href="#h" transform="matrix(1,0,0,1,5026.997806691204,2683.234375) translate(137.15343750000002 29.049479166666668)"/><use xlink:href="#E" transform="matrix(1,0,0,1,5026.997806691204,2683.234375) translate(149.72505208333337 29.049479166666668)"/></g><path d="M4973.2 2839.5c-8.85 0-16 7.16-16 16v48c0 8.84 7.15 16 16 16h128c8.82 0 16-7.16 16-16v-48c0-8.84-7.18-16-16-16z" stroke="#333" fill="#fff"/><g><use xlink:href="#r" transform="matrix(1,0,0,1,4965.187806702637,2847.5) translate(20.55794270833333 36.85026041666667)"/><use xlink:href="#h" transform="matrix(1,0,0,1,4965.187806702637,2847.5) translate(57.15950520833333 36.85026041666667)"/><use xlink:href="#F" transform="matrix(1,0,0,1,4965.187806702637,2847.5) translate(69.73111979166666 36.85026041666667)"/></g><path d="M5294.88 2719.5H5538a12 12 0 0 0 12-12V2432a12 12 0 0 0-12-12h-343.93" stroke="#333" fill="none"/><path d="M5294.9 2719.97h-.56l.04-.47-.04-.47h.55z" stroke="#333" stroke-width=".05" fill="#333"/><path d="M5179.3 2420l14.27-4.64v9.28z" stroke="#333" fill="#333"/><g><use xlink:href="#C" transform="matrix(1,0,0,1,5309.196114601742,2683.234375) translate(113.65408854166668 12.916666666666668)"/><use xlink:href="#D" transform="matrix(1,0,0,1,5309.196114601742,2683.234375) translate(0.0049999999999954525 29.049479166666668)"/><use xlink:href="#h" transform="matrix(1,0,0,1,5309.196114601742,2683.234375) translate(137.15343750000002 29.049479166666668)"/><use xlink:href="#G" transform="matrix(1,0,0,1,5309.196114601742,2683.234375) translate(149.72505208333337 29.049479166666668)"/></g><path d="M5118.2 2879.5H6928a12 12 0 0 0 12-12v-250.62" stroke="#333" fill="none"/><path d="M5118.2 2879.97h-.5v-.94h.5z" stroke="#333" stroke-width=".05" fill="#333"/><path d="M6940 2602.12l4.64 14.26h-9.28z" stroke="#333" fill="#333"/><defs><path d="M140-251c81 0 123 46 123 126C263-46 219 4 140 4 59 4 17-45 17-125s42-126 123-126zm0 227c63 0 89-41 89-101s-29-99-89-99c-61 0-89 39-89 99S79-25 140-24" id="H"/><path d="M114-163C36-179 61-72 57 0H25l-1-190h30c1 12-1 29 2 39 6-27 23-49 58-41v29" id="I"/><path d="M85-194c31 0 48 13 60 33l-1-100h32l1 261h-30c-2-10 0-23-3-31C134-8 116 4 85 4 32 4 16-35 15-94c0-66 23-100 70-100zm9 24c-40 0-46 34-46 75 0 40 6 74 45 74 42 0 51-32 51-76 0-42-9-74-50-73" id="J"/><path d="M100-194c63 0 86 42 84 106H49c0 40 14 67 53 68 26 1 43-12 49-29l28 8c-11 28-37 45-77 45C44 4 14-33 15-96c1-61 26-98 85-98zm52 81c6-60-76-77-97-28-3 7-6 17-6 28h103" id="K"/><g id="a"><use transform="matrix(0.06172839506172839,0,0,0.06172839506172839,0,0)" xlink:href="#H"/><use transform="matrix(0.06172839506172839,0,0,0.06172839506172839,17.28395061728395,0)" xlink:href="#I"/><use transform="matrix(0.06172839506172839,0,0,0.06172839506172839,24.629629629629626,0)" xlink:href="#J"/><use transform="matrix(0.06172839506172839,0,0,0.06172839506172839,36.9753086419753,0)" xlink:href="#K"/><use transform="matrix(0.06172839506172839,0,0,0.06172839506172839,49.32098765432098,0)" xlink:href="#I"/></g><path d="M16-82v-28h88v28H16" id="L"/><use transform="matrix(0.06172839506172839,0,0,0.06172839506172839,0,0)" xlink:href="#L" id="b"/><path d="M185-189c-5-48-123-54-124 2 14 75 158 14 163 119 3 78-121 87-175 55-17-10-28-26-33-46l33-7c5 56 141 63 141-1 0-78-155-14-162-118-5-82 145-84 179-34 5 7 8 16 11 25" id="M"/><path d="M59-47c-2 24 18 29 38 22v24C64 9 27 4 27-40v-127H5v-23h24l9-43h21v43h35v23H59v120" id="N"/><path d="M141-36C126-15 110 5 73 4 37 3 15-17 15-53c-1-64 63-63 125-63 3-35-9-54-41-54-24 1-41 7-42 31l-33-3c5-37 33-52 76-52 45 0 72 20 72 64v82c-1 20 7 32 28 27v20c-31 9-61-2-59-35zM48-53c0 20 12 33 32 33 41-3 63-29 60-74-43 2-92-5-92 41" id="O"/><g id="c"><use transform="matrix(0.06172839506172839,0,0,0.06172839506172839,0,0)" xlink:href="#M"/><use transform="matrix(0.06172839506172839,0,0,0.06172839506172839,14.814814814814813,0)" xlink:href="#N"/><use transform="matrix(0.06172839506172839,0,0,0.06172839506172839,20.98765432098765,0)" xlink:href="#O"/><use transform="matrix(0.06172839506172839,0,0,0.06172839506172839,33.33333333333333,0)" xlink:href="#N"/><use transform="matrix(0.06172839506172839,0,0,0.06172839506172839,39.50617283950617,0)" xlink:href="#K"/></g><path d="M30-248c118-7 216 8 213 122C240-48 200 0 122 0H30v-248zM63-27c89 8 146-16 146-99s-60-101-146-95v194" id="P"/><path d="M24-231v-30h32v30H24zM24 0v-190h32V0H24" id="Q"/><path d="M177-190C167-65 218 103 67 71c-23-6-38-20-44-43l32-5c15 47 100 32 89-28v-30C133-14 115 1 83 1 29 1 15-40 15-95c0-56 16-97 71-98 29-1 48 16 59 35 1-10 0-23 2-32h30zM94-22c36 0 50-32 50-73 0-42-14-75-50-75-39 0-46 34-46 75s6 73 46 73" id="R"/><path d="M210-169c-67 3-38 105-44 169h-31v-121c0-29-5-50-35-48C34-165 62-65 56 0H25l-1-190h30c1 10-1 24 2 32 10-44 99-50 107 0 11-21 27-35 58-36 85-2 47 119 55 194h-31v-121c0-29-5-49-35-48" id="S"/><g id="d"><use transform="matrix(0.06172839506172839,0,0,0.06172839506172839,0,0)" xlink:href="#P"/><use transform="matrix(0.06172839506172839,0,0,0.06172839506172839,15.987654320987653,0)" xlink:href="#Q"/><use transform="matrix(0.06172839506172839,0,0,0.06172839506172839,20.864197530864196,0)" xlink:href="#O"/><use transform="matrix(0.06172839506172839,0,0,0.06172839506172839,33.20987654320987,0)" xlink:href="#R"/><use transform="matrix(0.06172839506172839,0,0,0.06172839506172839,45.55555555555555,0)" xlink:href="#I"/><use transform="matrix(0.06172839506172839,0,0,0.06172839506172839,52.90123456790123,0)" xlink:href="#O"/><use transform="matrix(0.06172839506172839,0,0,0.06172839506172839,65.24691358024691,0)" xlink:href="#S"/></g><path d="M338-670V0H158v-1118h173l1 207c72-158 192-221 342-221 226 0 378 139 378 422V0H872v-695c0-172-96-275-252-275-161 0-282 109-282 300" id="T"/><path d="M628 24c-324 0-524-230-524-574 0-343 198-582 503-582 237 0 487 146 487 559v75H286c9 234 145 362 343 362 132 0 231-58 273-172l174 48C1024-91 857 24 628 24zM287-650h624c-17-190-120-322-304-322-192 0-309 151-320 322" id="U"/><path d="M409 0L70-1118h191c89 329 165 560 243 925 75-353 154-601 240-925h192c85 325 161 564 235 922 77-354 157-598 244-922h191L1267 0h-179c-86-307-176-590-250-913C763-588 675-308 588 0H409" id="V"/><g id="e"><use transform="matrix(0.006510416666666667,0,0,0.006510416666666667,0,0)" xlink:href="#T"/><use transform="matrix(0.006510416666666667,0,0,0.006510416666666667,7.877604166666667,0)" xlink:href="#U"/><use transform="matrix(0.006510416666666667,0,0,0.006510416666666667,15.41015625,0)" xlink:href="#V"/></g><path d="M784 20c-382 0-662-292-662-764 0-473 280-766 662-766s660 293 660 766c0 472-278 764-660 764zm0-176c266 0 475-207 475-588 0-383-209-590-475-590-268 0-477 208-477 590 0 380 209 588 477 588" id="W"/><path d="M158 0v-1118h174v172h12c41-113 157-188 290-188 26 0 70 2 91 3v181c-11-2-60-10-108-10-161 0-279 109-279 260V0H158" id="X"/><path d="M577 24c-279 0-473-224-473-580 0-354 195-576 474-576 218 0 287 134 324 193h14v-551h180V0H922v-173h-20C865-111 790 24 577 24zm27-161c203 0 314-172 314-421 0-247-108-413-314-413-212 0-317 181-317 413 0 235 108 421 317 421" id="Y"/><path d="M218-607c0-325 108-727 258-974h175c-155 315-250 682-250 974 0 265 78 531 250 886H476C306-10 218-315 218-607" id="Z"/><path d="M96 279C273-86 346-350 346-607c0-292-95-659-250-974h175c150 246 258 650 258 974 0 297-91 602-258 886H96" id="aa"/><g id="f"><use transform="matrix(0.006510416666666667,0,0,0.006510416666666667,0,0)" xlink:href="#W"/><use transform="matrix(0.006510416666666667,0,0,0.006510416666666667,10.1953125,0)" xlink:href="#X"/><use transform="matrix(0.006510416666666667,0,0,0.006510416666666667,14.993489583333334,0)" xlink:href="#Y"/><use transform="matrix(0.006510416666666667,0,0,0.006510416666666667,23.157552083333336,0)" xlink:href="#U"/><use transform="matrix(0.006510416666666667,0,0,0.006510416666666667,30.930989583333336,0)" xlink:href="#X"/><use transform="matrix(0.006510416666666667,0,0,0.006510416666666667,35.950520833333336,0)" xlink:href="#Z"/><use transform="matrix(0.006510416666666667,0,0,0.006510416666666667,40.813802083333336,0)" xlink:href="#aa"/></g><path d="M754 19C571 19 479-89 437-179h-14V0H128v-1490h300v560h9c41-89 129-202 319-202 248 0 453 193 453 575 0 372-197 576-455 576zm-92-241c156 0 240-139 240-336 0-196-83-334-240-334-154 0-241 131-241 334 0 202 88 336 241 336" id="ab"/><path d="M628 22C291 22 81-210 81-554c0-346 210-578 547-578 336 0 547 232 547 578 0 344-211 576-547 576zm0-236c160 0 242-146 242-341 0-197-82-341-242-341S387-753 387-555c0 195 81 341 241 341" id="ac"/><path d="M128 0v-1118h290v195h12c54-169 184-238 367-200v268c-27-8-86-15-130-15-138 0-239 95-239 234V0H128" id="ad"/><path d="M428-647V0H128v-1118h283l4 231c63-156 176-245 348-245 232 0 384 159 384 421V0H847v-659c0-139-76-222-202-222-128 0-217 86-217 234" id="ae"/><path d="M75-1237v-253h1217v253H837V0H531v-1237H75" id="af"/><path d="M128 0v-1118h300V0H128zm150-1264c-91 0-165-68-165-154 0-85 74-154 165-154 90 0 165 69 165 154 0 86-75 154-165 154" id="ag"/><path d="M128 0v-1118h278l12 217c60-163 185-234 319-234 143 0 236 81 288 251 63-172 205-251 359-251 205 0 357 138 357 381V0h-301v-697c0-126-76-187-177-187-114 0-184 79-184 196V0H789v-705c0-109-72-179-174-179-106 0-187 74-187 208V0H128" id="ah"/><path d="M633 22C291 22 81-200 81-553c0-345 210-579 537-579 292 0 525 185 525 567v84H378c7 183 109 277 260 277 105 0 184-46 216-132l272 51C1071-99 893 22 633 22zM380-669h474c-15-146-94-237-233-237-143 0-229 99-241 237" id="ai"/><path d="M681 22C323 22 94-145 85-462h297c10 151 131 226 296 226 163 0 271-77 271-190 0-102-95-149-257-189l-164-41c-252-61-403-188-403-405 0-269 236-449 560-449 330 0 546 183 551 445H941c-11-119-106-188-259-188-156 0-244 72-244 172-3 156 226 185 373 221 250 61 445 186 445 436 0 271-213 446-575 446" id="aj"/><path d="M683-1118v229H474v562c0 71 29 104 102 104 23 0 73-7 95-13l43 225C647 9 580 16 520 16 296 16 174-96 174-301v-588H20v-229h154v-266h300v266h209" id="ak"/><path d="M440 22C227 22 68-92 68-313c0-250 202-322 422-343 195-21 271-24 271-105 0-95-63-149-175-149-116 0-187 57-211 129l-275-46c57-194 237-305 487-305 240 0 474 108 474 379V0H777v-155h-10C713-51 605 22 440 22zm85-211c140 0 238-93 238-211v-121c-37 26-156 42-222 51-111 16-185 59-185 149 0 87 70 132 169 132" id="al"/><path d="M128 418v-1536h295v188h14c41-89 129-202 319-202 248 0 453 193 453 575 0 372-197 576-455 576-183 0-275-108-317-198h-9v597H128zm534-640c156 0 240-139 240-336 0-196-83-334-240-334-154 0-241 131-241 334 0 202 88 336 241 336" id="am"/><g id="g"><use transform="matrix(0.006510416666666667,0,0,0.006510416666666667,0,0)" xlink:href="#ab"/><use transform="matrix(0.006510416666666667,0,0,0.006510416666666667,8.404947916666668,0)" xlink:href="#ac"/><use transform="matrix(0.006510416666666667,0,0,0.006510416666666667,16.58203125,0)" xlink:href="#ad"/><use transform="matrix(0.006510416666666667,0,0,0.006510416666666667,22.109375,0)" xlink:href="#ae"/><use transform="matrix(0.006510416666666667,0,0,0.006510416666666667,29.466145833333336,0)" xlink:href="#af"/><use transform="matrix(0.006510416666666667,0,0,0.006510416666666667,38.365885416666664,0)" xlink:href="#ag"/><use transform="matrix(0.006510416666666667,0,0,0.006510416666666667,41.979166666666664,0)" xlink:href="#ah"/><use transform="matrix(0.006510416666666667,0,0,0.006510416666666667,54.14713541666667,0)" xlink:href="#ai"/><use transform="matrix(0.006510416666666667,0,0,0.006510416666666667,62.08984375,0)" xlink:href="#aj"/><use transform="matrix(0.006510416666666667,0,0,0.006510416666666667,70.8203125,0)" xlink:href="#ak"/><use transform="matrix(0.006510416666666667,0,0,0.006510416666666667,75.76822916666667,0)" xlink:href="#al"/><use transform="matrix(0.006510416666666667,0,0,0.006510416666666667,83.50911458333334,0)" xlink:href="#ah"/><use transform="matrix(0.006510416666666667,0,0,0.006510416666666667,95.67708333333334,0)" xlink:href="#am"/></g><path d="M226-283v-166h904v166H226zm0-434v-166h904v166H226" id="an"/><use transform="matrix(0.006510416666666667,0,0,0.006510416666666667,0,0)" xlink:href="#an" id="h"/><path d="M528 24C258 24 94-156 94-433c0-354 228-699 603-699 222 0 381 120 410 314l-176 39c-14-114-95-192-238-192-272 0-419 288-419 536 0 167 76 298 258 298 155 0 277-90 329-211l166 58C935-93 745 24 528 24" id="ao"/><path d="M443 14C219 14 87-123 134-408l117-710h180L317-423c-28 171 49 275 206 275s300-105 332-300l110-670h181L961 0H787l35-209C722-47 590 14 443 14" id="ap"/><path d="M66 0l185-1118h174l-28 172h12c78-136 219-209 411-185l-30 181c-211-47-398 67-428 250L246 0H66" id="aq"/><path d="M535 24C259 24 94-144 94-427c0-392 272-715 610-715 216 0 356 119 356 305 0 244-237 344-790 350-18 199 49 349 276 352 142 0 260-66 317-173l167 47C947-85 756 24 535 24zM294-623c447-4 586-57 586-218 0-85-78-141-194-141-220 0-342 177-392 359" id="ar"/><path d="M356-664L245 0H65l186-1118h173l-32 197c96-152 219-211 366-211 232 0 366 145 319 428L960 0H779l117-701c29-174-48-269-198-269-165 0-310 115-342 306" id="as"/><path d="M691-1118l-25 154H437L325-290c-17 103 16 144 108 144 23 0 63-6 94-12L538-6c-36 12-87 20-136 20-196 0-290-109-260-290l114-688H88l25-154h169l44-266h180l-44 266h229" id="at"/><path d="M226-1323l28-167h1126l-28 167H885L666 0H476l219-1323H226" id="au"/><path d="M66 0l185-1118h180L246 0H66zm307-1301c-71 0-117-55-106-119s74-119 145-119c65 0 117 50 106 118s-78 120-145 120" id="av"/><path d="M65 0l186-1118h175l-31 195c80-148 212-215 337-215 153 0 236 96 255 228 75-143 223-228 382-228 199 0 341 131 298 390L1543 0h-181l126-756c27-162-65-218-177-218-160 0-274 111-297 250L894 0H714l128-773c21-127-57-201-174-201-136 0-277 97-307 277L245 0H65" id="aw"/><path d="M575 26C254 26 62-139 87-390h195c-13 168 129 246 305 246 202 0 370-106 400-265 38-202-254-238-427-293-212-68-349-179-316-387 40-252 276-421 566-421 289 0 487 168 458 396h-185c7-144-113-228-291-228-194 0-337 102-361 240-27 156 137 212 244 243l142 41c149 43 400 132 354 412-40 244-251 432-596 432" id="ax"/><path d="M481 24C202 24 45-202 104-557s293-575 571-575c216 0 263 132 291 193h15l29-179h181L1006 0H831l28-173h-21C788-107 693 24 481 24zm56-161c204 0 342-174 383-422s-41-412-245-412c-215 0-350 183-388 412-39 235 39 422 250 422" id="ay"/><path d="M-4 418l255-1536h174l-30 179h9c47-68 143-193 355-193 246 0 401 170 401 447 0 348-211 709-568 709-219 0-274-140-300-202h-17l-99 596H-4zm572-555c267 0 411-296 411-543 0-170-78-291-250-291-269 0-405 284-405 542 0 177 81 292 244 292" id="az"/><path d="M128 359l88-567h206L266 359H128" id="aA"/><g id="i"><use transform="matrix(0.006510416666666667,0,0,0.006510416666666667,0,0)" xlink:href="#ao"/><use transform="matrix(0.006510416666666667,0,0,0.006510416666666667,7.623697916666667,0)" xlink:href="#ap"/><use transform="matrix(0.006510416666666667,0,0,0.006510416666666667,15.514322916666668,0)" xlink:href="#aq"/><use transform="matrix(0.006510416666666667,0,0,0.006510416666666667,20.748697916666668,0)" xlink:href="#aq"/><use transform="matrix(0.006510416666666667,0,0,0.006510416666666667,25.553385416666668,0)" xlink:href="#ar"/><use transform="matrix(0.006510416666666667,0,0,0.006510416666666667,33.22916666666667,0)" xlink:href="#as"/><use transform="matrix(0.006510416666666667,0,0,0.006510416666666667,41.11328125000001,0)" xlink:href="#at"/><use transform="matrix(0.006510416666666667,0,0,0.006510416666666667,45.03906250000001,0)" xlink:href="#au"/><use transform="matrix(0.006510416666666667,0,0,0.006510416666666667,53.65885416666667,0)" xlink:href="#av"/><use transform="matrix(0.006510416666666667,0,0,0.006510416666666667,56.89453125,0)" xlink:href="#aw"/><use transform="matrix(0.006510416666666667,0,0,0.006510416666666667,68.57421875,0)" xlink:href="#ar"/><use transform="matrix(0.006510416666666667,0,0,0.006510416666666667,76.25,0)" xlink:href="#ax"/><use transform="matrix(0.006510416666666667,0,0,0.006510416666666667,84.79166666666667,0)" xlink:href="#at"/><use transform="matrix(0.006510416666666667,0,0,0.006510416666666667,89.03645833333334,0)" xlink:href="#ay"/><use transform="matrix(0.006510416666666667,0,0,0.006510416666666667,97.22005208333334,0)" xlink:href="#aw"/><use transform="matrix(0.006510416666666667,0,0,0.006510416666666667,108.89973958333334,0)" xlink:href="#az"/><use transform="matrix(0.006510416666666667,0,0,0.006510416666666667,117.0703125,0)" xlink:href="#aA"/></g><path d="M572 22C302 22 117-98 78-306l279-48c29 105 101 156 224 156 114 0 185-48 185-115 0-118-228-130-337-155-215-49-322-150-322-317 0-215 187-347 470-347 265 0 424 116 466 298l-266 47c-24-76-87-130-196-130-98 0-174 46-174 113 0 56 38 95 144 117l201 40c216 44 320 143 320 302 0 220-207 367-500 367" id="aB"/><g id="j"><use transform="matrix(0.006510416666666667,0,0,0.006510416666666667,0,0)" xlink:href="#aB"/><use transform="matrix(0.006510416666666667,0,0,0.006510416666666667,7.467447916666667,0)" xlink:href="#ak"/><use transform="matrix(0.006510416666666667,0,0,0.006510416666666667,12.415364583333334,0)" xlink:href="#al"/><use transform="matrix(0.006510416666666667,0,0,0.006510416666666667,20.15625,0)" xlink:href="#ak"/><use transform="matrix(0.006510416666666667,0,0,0.006510416666666667,24.908854166666668,0)" xlink:href="#ai"/></g><path d="M528 24C258 24 94-156 94-433c0-355 229-699 603-699 270 0 436 178 436 458 0 359-234 698-605 698zm4-161c275 0 420-287 420-533 0-170-77-301-260-301-271 0-418 288-418 536 0 168 77 298 258 298" id="aC"/><path d="M492-1490L245 0H65l247-1490h180" id="aD"/><g id="k"><use transform="matrix(0.006510416666666667,0,0,0.006510416666666667,0,0)" xlink:href="#av"/><use transform="matrix(0.006510416666666667,0,0,0.006510416666666667,3.2356770833333335,0)" xlink:href="#as"/><use transform="matrix(0.006510416666666667,0,0,0.006510416666666667,11.119791666666668,0)" xlink:href="#ao"/><use transform="matrix(0.006510416666666667,0,0,0.006510416666666667,18.743489583333336,0)" xlink:href="#aC"/><use transform="matrix(0.006510416666666667,0,0,0.006510416666666667,26.744791666666675,0)" xlink:href="#aw"/><use transform="matrix(0.006510416666666667,0,0,0.006510416666666667,38.42447916666667,0)" xlink:href="#az"/><use transform="matrix(0.006510416666666667,0,0,0.006510416666666667,46.59505208333334,0)" xlink:href="#aD"/><use transform="matrix(0.006510416666666667,0,0,0.006510416666666667,49.82421875000001,0)" xlink:href="#ar"/><use transform="matrix(0.006510416666666667,0,0,0.006510416666666667,57.5,0)" xlink:href="#at"/><use transform="matrix(0.006510416666666667,0,0,0.006510416666666667,61.74479166666667,0)" xlink:href="#ar"/></g><path d="M338-670V0H158v-1490h180v566c73-149 190-208 336-208 226 0 379 139 379 422V0H872v-695c0-172-96-275-252-275-161 0-282 109-282 300" id="aE"/><path d="M471 26C259 26 90-98 90-318c0-256 228-303 435-329 202-27 287-16 287-108 0-139-79-219-234-219-161 0-248 86-283 164l-173-57c86-203 278-265 451-265 150 0 419 46 419 395V0H815v-152h-12C765-73 660 26 471 26zm31-159c199 0 310-134 310-271v-155c-30 35-226 55-295 64-131 17-246 59-246 186 0 116 97 176 231 176" id="aF"/><path d="M538 24C308 24 148-78 108-271l171-41c32 123 123 178 257 178 156 0 256-77 256-169 0-77-54-128-164-154l-186-44c-203-48-300-148-300-305 0-192 176-326 414-326 230 0 351 112 402 269l-163 42c-31-80-94-158-238-158-133 0-233 69-233 162 0 83 57 129 188 160l169 40c203 48 298 149 298 302 0 196-179 339-441 339" id="aG"/><path d="M98-1322v-168h1126v168H757V0H567v-1322H98" id="aH"/><path d="M180 0v-1490h190v1322h690V0H180" id="aI"/><path d="M180 0v-1490h908v168H370v486h669v168H370v500h727V0H180" id="aJ"/><path d="M65 0l393-574-370-544h210c88 136 192 297 267 435 67-142 176-302 264-435h206L661-564 1053 0H844c-94-144-206-310-287-458C484-308 366-142 273 0H65" id="aK"/><path d="M613 24c-304 0-509-231-509-576 0-350 205-580 509-580 216 0 392 114 453 309l-173 49c-33-115-133-197-280-197-223 0-326 196-326 419 0 220 103 415 326 415 150 0 252-85 285-206l172 49C1010-95 832 24 613 24" id="aL"/><g id="l"><use transform="matrix(0.006510416666666667,0,0,0.006510416666666667,0,0)" xlink:href="#aE"/><use transform="matrix(0.006510416666666667,0,0,0.006510416666666667,7.884114583333334,0)" xlink:href="#aF"/><use transform="matrix(0.006510416666666667,0,0,0.006510416666666667,15.37109375,0)" xlink:href="#aG"/><use transform="matrix(0.006510416666666667,0,0,0.006510416666666667,21.42578125,0)" xlink:href="#aH"/><use transform="matrix(0.006510416666666667,0,0,0.006510416666666667,30.032552083333336,0)" xlink:href="#aH"/><use transform="matrix(0.006510416666666667,0,0,0.006510416666666667,38.63932291666667,0)" xlink:href="#aI"/><use transform="matrix(0.006510416666666667,0,0,0.006510416666666667,46.17838541666667,0)" xlink:href="#aJ"/><use transform="matrix(0.006510416666666667,0,0,0.006510416666666667,54.19270833333335,0)" xlink:href="#aK"/><use transform="matrix(0.006510416666666667,0,0,0.006510416666666667,61.171875000000014,0)" xlink:href="#aL"/><use transform="matrix(0.006510416666666667,0,0,0.006510416666666667,68.78906250000001,0)" xlink:href="#U"/><use transform="matrix(0.006510416666666667,0,0,0.006510416666666667,76.56250000000001,0)" xlink:href="#U"/><use transform="matrix(0.006510416666666667,0,0,0.006510416666666667,84.33593750000001,0)" xlink:href="#Y"/><use transform="matrix(0.006510416666666667,0,0,0.006510416666666667,92.50000000000001,0)" xlink:href="#U"/><use transform="matrix(0.006510416666666667,0,0,0.006510416666666667,100.27343750000001,0)" xlink:href="#Y"/><use transform="matrix(0.006510416666666667,0,0,0.006510416666666667,108.4375,0)" xlink:href="#Z"/><use transform="matrix(0.006510416666666667,0,0,0.006510416666666667,113.30078125,0)" xlink:href="#aa"/></g><path d="M158 0v-1490h180v865h22l478-493h223L593-638 1096 0H865L456-523 338-412V0H158" id="aM"/><path d="M657 26c-323 0-524-166-541-416h195c15 169 171 246 346 246 202 0 356-106 356-265 5-203-294-238-475-293-239-73-380-191-380-389 0-252 224-419 512-419 294 0 499 171 508 396H992c-17-145-151-228-328-228-193 0-321 102-321 242 0 156 175 211 284 241l149 41c160 44 422 134 422 412 0 244-197 432-541 432" id="aN"/><path d="M598-1118v154H368v674c0 100 37 144 132 144 23 0 62-6 92-12L629-6c-37 13-88 20-134 20-193 0-307-107-307-290v-688H20v-154h168v-266h180v266h230" id="aO"/><path d="M158 0v-1118h180V0H158zm91-1301c-68 0-125-53-125-119s57-119 125-119c69 0 126 53 126 119s-57 119-126 119" id="aP"/><path d="M158 418v-1536h174v179h20c37-59 106-193 324-193 279 0 474 222 474 576 0 356-194 580-473 580-213 0-288-135-325-197h-14v591H158zm492-555c209 0 317-186 317-421 0-232-105-413-317-413-206 0-314 166-314 413 0 249 111 421 314 421" id="aQ"/><path d="M180 0v-1490h901v168H370v510h643v168H370V0H180" id="aR"/><path d="M613 24c-304 0-509-231-509-576 0-350 205-580 509-580 305 0 511 230 511 580 0 345-206 576-511 576zm0-161c226 0 329-195 329-415 0-222-103-419-329-419-223 0-326 196-326 419 0 220 103 415 326 415" id="aS"/><path d="M180 0v-1490h510c348 0 508 209 508 474 0 266-160 477-507 477H370V0H180zm190-706h312c236 0 327-133 327-310 0-176-91-307-329-307H370v617" id="aT"/><path d="M140 405l46-156c120 36 205 19 263-150l32-93L54-1118h197c107 313 237 620 324 950 87-331 219-637 326-950h196L606 167c-68 178-176 259-334 259-64 0-113-12-132-21" id="aU"/><path d="M158 0v-1118h175l1 205c55-151 181-225 313-225 147 0 245 90 285 228 53-141 190-228 352-228 194 0 352 125 352 384V0h-181v-749c0-161-105-225-225-225-151 0-243 103-243 244V0H807v-767c0-124-93-207-219-207-131 0-250 92-250 270V0H158" id="aV"/><path d="M537 14c-226 0-379-139-379-422v-710h180v695c0 172 97 275 253 275 160 0 281-109 281-300v-670h181V0H879v-209C806-46 684 14 537 14" id="aW"/><g id="m"><use transform="matrix(0.006510416666666667,0,0,0.006510416666666667,0,0)" xlink:href="#aF"/><use transform="matrix(0.006510416666666667,0,0,0.006510416666666667,7.486979166666667,0)" xlink:href="#aG"/><use transform="matrix(0.006510416666666667,0,0,0.006510416666666667,14.524739583333334,0)" xlink:href="#aM"/><use transform="matrix(0.006510416666666667,0,0,0.006510416666666667,21.842447916666668,0)" xlink:href="#aN"/><use transform="matrix(0.006510416666666667,0,0,0.006510416666666667,30.397135416666668,0)" xlink:href="#aO"/><use transform="matrix(0.006510416666666667,0,0,0.006510416666666667,34.759114583333336,0)" xlink:href="#X"/><use transform="matrix(0.006510416666666667,0,0,0.006510416666666667,39.98697916666667,0)" xlink:href="#aP"/><use transform="matrix(0.006510416666666667,0,0,0.006510416666666667,43.216145833333336,0)" xlink:href="#aQ"/><use transform="matrix(0.006510416666666667,0,0,0.006510416666666667,51.380208333333336,0)" xlink:href="#U"/><use transform="matrix(0.006510416666666667,0,0,0.006510416666666667,59.153645833333336,0)" xlink:href="#aR"/><use transform="matrix(0.006510416666666667,0,0,0.006510416666666667,66.49739583333334,0)" xlink:href="#aS"/><use transform="matrix(0.006510416666666667,0,0,0.006510416666666667,74.49218750000001,0)" xlink:href="#X"/><use transform="matrix(0.006510416666666667,0,0,0.006510416666666667,79.72005208333334,0)" xlink:href="#aT"/><use transform="matrix(0.006510416666666667,0,0,0.006510416666666667,88.23567708333334,0)" xlink:href="#aF"/><use transform="matrix(0.006510416666666667,0,0,0.006510416666666667,95.52734375000001,0)" xlink:href="#aU"/><use transform="matrix(0.006510416666666667,0,0,0.006510416666666667,103.02083333333334,0)" xlink:href="#aV"/><use transform="matrix(0.006510416666666667,0,0,0.006510416666666667,114.70052083333334,0)" xlink:href="#U"/><use transform="matrix(0.006510416666666667,0,0,0.006510416666666667,122.47395833333334,0)" xlink:href="#T"/><use transform="matrix(0.006510416666666667,0,0,0.006510416666666667,130.3515625,0)" xlink:href="#aO"/><use transform="matrix(0.006510416666666667,0,0,0.006510416666666667,134.58333333333331,0)" xlink:href="#aG"/><use transform="matrix(0.006510416666666667,0,0,0.006510416666666667,141.62109374999997,0)" xlink:href="#aN"/><use transform="matrix(0.006510416666666667,0,0,0.006510416666666667,150.17578124999997,0)" xlink:href="#aO"/><use transform="matrix(0.006510416666666667,0,0,0.006510416666666667,154.6028645833333,0)" xlink:href="#aF"/><use transform="matrix(0.006510416666666667,0,0,0.006510416666666667,162.08984374999994,0)" xlink:href="#aO"/><use transform="matrix(0.006510416666666667,0,0,0.006510416666666667,166.4518229166666,0)" xlink:href="#aW"/><use transform="matrix(0.006510416666666667,0,0,0.006510416666666667,174.33593749999994,0)" xlink:href="#aG"/><use transform="matrix(0.006510416666666667,0,0,0.006510416666666667,181.3736979166666,0)" xlink:href="#U"/><use transform="matrix(0.006510416666666667,0,0,0.006510416666666667,189.1471354166666,0)" xlink:href="#aG"/><use transform="matrix(0.006510416666666667,0,0,0.006510416666666667,196.18489583333326,0)" xlink:href="#Z"/><use transform="matrix(0.006510416666666667,0,0,0.006510416666666667,201.04817708333326,0)" xlink:href="#aa"/></g><path d="M356-670L245 0H65l247-1490h180l-94 565c97-150 219-207 362-207 226 0 365 139 318 422L960 0H779l116-695c29-174-53-275-208-275-158 0-299 107-331 300" id="aX"/><path d="M451 24C217 22 71-78 61-277l174-29c11 123 90 172 219 172 161 0 280-83 297-181 11-71-30-117-135-143l-179-44c-195-48-280-153-253-316 31-186 223-314 455-314 233 4 337 107 366 275l-165 30c-18-80-65-152-204-152-138 0-256 75-272 174-13 77 32 118 158 149l162 40c195 48 278 154 252 313C904-113 708 24 451 24" id="aY"/><path d="M87 0l247-1490h190L304-167h690L967 0H87" id="aZ"/><path d="M87 0l247-1490h908l-28 167H496l-80 487h669l-28 167H387l-83 502h727L1004 0H87" id="ba"/><path d="M-28 0l489-573-281-545h202c65 135 144 295 195 434 91-140 226-300 336-434h214L662-564 960 0H756c-70-143-156-309-211-458C447-309 301-142 185 0H-28" id="bb"/><path d="M492 24C248 24 94-147 94-425c0-352 212-707 569-707 222 0 274 136 303 198h12l92-556h181L1004 0H829l30-173h-19C792-103 700 24 492 24zm32-161c268 0 407-295 407-549 0-175-80-285-247-285-266 0-408 283-408 536 0 174 79 298 248 298" id="bc"/><path d="M226-608c54-324 228-726 419-973h175c-209 318-363 684-411 972-44 264-11 530 103 888H337C213-15 178-320 226-608" id="bd"/><path d="M-43 280C186-71 310-340 354-607c48-291 15-654-89-973h176c108 246 149 649 95 974-48 289-184 595-403 886H-43" id="be"/><g id="n"><use transform="matrix(0.006510416666666667,0,0,0.006510416666666667,0,0)" xlink:href="#aX"/><use transform="matrix(0.006510416666666667,0,0,0.006510416666666667,7.884114583333334,0)" xlink:href="#ay"/><use transform="matrix(0.006510416666666667,0,0,0.006510416666666667,16.067708333333336,0)" xlink:href="#aY"/><use transform="matrix(0.006510416666666667,0,0,0.006510416666666667,22.11588541666667,0)" xlink:href="#au"/><use transform="matrix(0.006510416666666667,0,0,0.006510416666666667,30.73567708333334,0)" xlink:href="#au"/><use transform="matrix(0.006510416666666667,0,0,0.006510416666666667,39.35546875000001,0)" xlink:href="#aZ"/><use transform="matrix(0.006510416666666667,0,0,0.006510416666666667,46.89453125000001,0)" xlink:href="#ba"/><use transform="matrix(0.006510416666666667,0,0,0.006510416666666667,54.91536458333335,0)" xlink:href="#bb"/><use transform="matrix(0.006510416666666667,0,0,0.006510416666666667,61.894531250000014,0)" xlink:href="#ao"/><use transform="matrix(0.006510416666666667,0,0,0.006510416666666667,69.51822916666669,0)" xlink:href="#ar"/><use transform="matrix(0.006510416666666667,0,0,0.006510416666666667,77.19401041666669,0)" xlink:href="#ar"/><use transform="matrix(0.006510416666666667,0,0,0.006510416666666667,84.86979166666669,0)" xlink:href="#bc"/><use transform="matrix(0.006510416666666667,0,0,0.006510416666666667,93.04036458333336,0)" xlink:href="#ar"/><use transform="matrix(0.006510416666666667,0,0,0.006510416666666667,100.71614583333336,0)" xlink:href="#bc"/><use transform="matrix(0.006510416666666667,0,0,0.006510416666666667,108.88671875000003,0)" xlink:href="#bd"/><use transform="matrix(0.006510416666666667,0,0,0.006510416666666667,113.75000000000003,0)" xlink:href="#be"/></g><path d="M182-283l27-166h904l-27 166H182zm73-434l27-166h904l-27 166H255" id="bf"/><use transform="matrix(0.006510416666666667,0,0,0.006510416666666667,0,0)" xlink:href="#bf" id="o"/><path d="M780-1118l-24 146H497L317 116C281 334 148 448-56 448c-43 0-82-5-117-17l45-161c143 34 239 0 264-153L316-972H89l24-146h227l13-77c43-287 254-417 541-345l-50 154c-23-5-81-8-121-8-107 0-167 63-189 196l-13 80h259" id="bg"/><g id="p"><use transform="matrix(0.006510416666666667,0,0,0.006510416666666667,0,0)" xlink:href="#bg"/><use transform="matrix(0.006510416666666667,0,0,0.006510416666666667,4.583333333333334,0)" xlink:href="#ay"/><use transform="matrix(0.006510416666666667,0,0,0.006510416666666667,12.766927083333334,0)" xlink:href="#aD"/><use transform="matrix(0.006510416666666667,0,0,0.006510416666666667,15.99609375,0)" xlink:href="#aY"/><use transform="matrix(0.006510416666666667,0,0,0.006510416666666667,23.02734375,0)" xlink:href="#ar"/></g><g id="q"><use transform="matrix(0.006510416666666667,0,0,0.006510416666666667,0,0)" xlink:href="#at"/><use transform="matrix(0.006510416666666667,0,0,0.006510416666666667,4.375,0)" xlink:href="#aq"/><use transform="matrix(0.006510416666666667,0,0,0.006510416666666667,9.401041666666668,0)" xlink:href="#ap"/><use transform="matrix(0.006510416666666667,0,0,0.006510416666666667,17.291666666666668,0)" xlink:href="#ar"/></g><g id="r"><use transform="matrix(0.006510416666666667,0,0,0.006510416666666667,0,0)" xlink:href="#aB"/><use transform="matrix(0.006510416666666667,0,0,0.006510416666666667,7.467447916666667,0)" xlink:href="#ak"/><use transform="matrix(0.006510416666666667,0,0,0.006510416666666667,12.415364583333334,0)" xlink:href="#al"/><use transform="matrix(0.006510416666666667,0,0,0.006510416666666667,20.15625,0)" xlink:href="#ak"/><use transform="matrix(0.006510416666666667,0,0,0.006510416666666667,24.908854166666668,0)" xlink:href="#ai"/></g><g id="s"><use transform="matrix(0.006510416666666667,0,0,0.006510416666666667,0,0)" xlink:href="#bg"/><use transform="matrix(0.006510416666666667,0,0,0.006510416666666667,4.583333333333334,0)" xlink:href="#ay"/><use transform="matrix(0.006510416666666667,0,0,0.006510416666666667,12.766927083333334,0)" xlink:href="#av"/><use transform="matrix(0.006510416666666667,0,0,0.006510416666666667,16.002604166666668,0)" xlink:href="#aD"/><use transform="matrix(0.006510416666666667,0,0,0.006510416666666667,19.231770833333336,0)" xlink:href="#ar"/><use transform="matrix(0.006510416666666667,0,0,0.006510416666666667,26.907552083333336,0)" xlink:href="#bc"/></g><path d="M65 0l247-1490h180L349-625h22l559-493h223L606-638 1003 0H772L449-523 313-412 245 0H65" id="bh"/><path d="M87 0l247-1490h901l-28 167H496l-85 512h643l-27 167H384L277 0H87" id="bi"/><path d="M87 0l247-1490h510c346 0 473 206 430 472s-238 479-586 479H366L277 0H87zm307-706h312c241 0 351-138 379-311s-39-306-279-306H496" id="bj"/><path d="M-19 405l72-156c121 32 203 15 288-150l47-93-241-1124h188c55 313 135 616 167 950 142-329 324-636 483-950h205L486 167c-97 177-219 259-378 259-59 0-109-11-127-21" id="bk"/><g id="t"><use transform="matrix(0.006510416666666667,0,0,0.006510416666666667,0,0)" xlink:href="#ay"/><use transform="matrix(0.006510416666666667,0,0,0.006510416666666667,8.18359375,0)" xlink:href="#aY"/><use transform="matrix(0.006510416666666667,0,0,0.006510416666666667,15.21484375,0)" xlink:href="#bh"/><use transform="matrix(0.006510416666666667,0,0,0.006510416666666667,22.5390625,0)" xlink:href="#ax"/><use transform="matrix(0.006510416666666667,0,0,0.006510416666666667,31.080729166666668,0)" xlink:href="#at"/><use transform="matrix(0.006510416666666667,0,0,0.006510416666666667,35.45572916666667,0)" xlink:href="#aq"/><use transform="matrix(0.006510416666666667,0,0,0.006510416666666667,40.69010416666667,0)" xlink:href="#av"/><use transform="matrix(0.006510416666666667,0,0,0.006510416666666667,43.92578125000001,0)" xlink:href="#az"/><use transform="matrix(0.006510416666666667,0,0,0.006510416666666667,52.09635416666667,0)" xlink:href="#ar"/><use transform="matrix(0.006510416666666667,0,0,0.006510416666666667,59.77213541666667,0)" xlink:href="#bi"/><use transform="matrix(0.006510416666666667,0,0,0.006510416666666667,67.11588541666667,0)" xlink:href="#aC"/><use transform="matrix(0.006510416666666667,0,0,0.006510416666666667,75.1171875,0)" xlink:href="#aq"/><use transform="matrix(0.006510416666666667,0,0,0.006510416666666667,80.3515625,0)" xlink:href="#bj"/><use transform="matrix(0.006510416666666667,0,0,0.006510416666666667,88.79557291666667,0)" xlink:href="#ay"/><use transform="matrix(0.006510416666666667,0,0,0.006510416666666667,96.78385416666667,0)" xlink:href="#bk"/><use transform="matrix(0.006510416666666667,0,0,0.006510416666666667,104.27734375,0)" xlink:href="#aw"/><use transform="matrix(0.006510416666666667,0,0,0.006510416666666667,115.95703125,0)" xlink:href="#ar"/><use transform="matrix(0.006510416666666667,0,0,0.006510416666666667,123.6328125,0)" xlink:href="#as"/><use transform="matrix(0.006510416666666667,0,0,0.006510416666666667,131.51692708333334,0)" xlink:href="#at"/><use transform="matrix(0.006510416666666667,0,0,0.006510416666666667,135.76171875,0)" xlink:href="#aY"/><use transform="matrix(0.006510416666666667,0,0,0.006510416666666667,142.79296875,0)" xlink:href="#ax"/><use transform="matrix(0.006510416666666667,0,0,0.006510416666666667,151.33463541666666,0)" xlink:href="#at"/><use transform="matrix(0.006510416666666667,0,0,0.006510416666666667,155.57942708333331,0)" xlink:href="#ay"/><use transform="matrix(0.006510416666666667,0,0,0.006510416666666667,163.76302083333331,0)" xlink:href="#at"/><use transform="matrix(0.006510416666666667,0,0,0.006510416666666667,168.13802083333331,0)" xlink:href="#ap"/><use transform="matrix(0.006510416666666667,0,0,0.006510416666666667,176.02864583333331,0)" xlink:href="#aY"/><use transform="matrix(0.006510416666666667,0,0,0.006510416666666667,183.05989583333331,0)" xlink:href="#ar"/><use transform="matrix(0.006510416666666667,0,0,0.006510416666666667,190.73567708333331,0)" xlink:href="#aY"/><use transform="matrix(0.006510416666666667,0,0,0.006510416666666667,197.76692708333331,0)" xlink:href="#bd"/><use transform="matrix(0.006510416666666667,0,0,0.006510416666666667,202.63020833333331,0)" xlink:href="#be"/></g><g id="u"><use transform="matrix(0.006510416666666667,0,0,0.006510416666666667,0,0)" xlink:href="#aY"/><use transform="matrix(0.006510416666666667,0,0,0.006510416666666667,7.03125,0)" xlink:href="#aC"/><use transform="matrix(0.006510416666666667,0,0,0.006510416666666667,15.032552083333334,0)" xlink:href="#aw"/><use transform="matrix(0.006510416666666667,0,0,0.006510416666666667,26.712239583333336,0)" xlink:href="#ar"/></g><path d="M826-719l-28 166H144l28-166h654" id="bl"/><g id="v"><use transform="matrix(0.006510416666666667,0,0,0.006510416666666667,0,0)" xlink:href="#aX"/><use transform="matrix(0.006510416666666667,0,0,0.006510416666666667,7.884114583333334,0)" xlink:href="#ay"/><use transform="matrix(0.006510416666666667,0,0,0.006510416666666667,16.067708333333336,0)" xlink:href="#aD"/><use transform="matrix(0.006510416666666667,0,0,0.006510416666666667,19.296875000000004,0)" xlink:href="#bg"/><use transform="matrix(0.006510416666666667,0,0,0.006510416666666667,23.89322916666667,0)" xlink:href="#bl"/><use transform="matrix(0.006510416666666667,0,0,0.006510416666666667,30.039062500000007,0)" xlink:href="#ao"/><use transform="matrix(0.006510416666666667,0,0,0.006510416666666667,37.66276041666667,0)" xlink:href="#aC"/><use transform="matrix(0.006510416666666667,0,0,0.006510416666666667,45.66406250000001,0)" xlink:href="#aw"/><use transform="matrix(0.006510416666666667,0,0,0.006510416666666667,57.34375,0)" xlink:href="#az"/><use transform="matrix(0.006510416666666667,0,0,0.006510416666666667,65.51432291666667,0)" xlink:href="#aD"/><use transform="matrix(0.006510416666666667,0,0,0.006510416666666667,68.74348958333334,0)" xlink:href="#ar"/><use transform="matrix(0.006510416666666667,0,0,0.006510416666666667,76.41927083333334,0)" xlink:href="#at"/><use transform="matrix(0.006510416666666667,0,0,0.006510416666666667,80.66406250000001,0)" xlink:href="#ar"/><use transform="matrix(0.006510416666666667,0,0,0.006510416666666667,88.33984375000001,0)" xlink:href="#bc"/></g><g id="w"><use transform="matrix(0.006510416666666667,0,0,0.006510416666666667,0,0)" xlink:href="#ao"/><use transform="matrix(0.006510416666666667,0,0,0.006510416666666667,7.623697916666667,0)" xlink:href="#aC"/><use transform="matrix(0.006510416666666667,0,0,0.006510416666666667,15.625,0)" xlink:href="#aw"/><use transform="matrix(0.006510416666666667,0,0,0.006510416666666667,27.3046875,0)" xlink:href="#az"/><use transform="matrix(0.006510416666666667,0,0,0.006510416666666667,35.47526041666667,0)" xlink:href="#aD"/><use transform="matrix(0.006510416666666667,0,0,0.006510416666666667,38.704427083333336,0)" xlink:href="#ar"/><use transform="matrix(0.006510416666666667,0,0,0.006510416666666667,46.380208333333336,0)" xlink:href="#at"/><use transform="matrix(0.006510416666666667,0,0,0.006510416666666667,50.625,0)" xlink:href="#ar"/></g><g id="x"><use transform="matrix(0.006510416666666667,0,0,0.006510416666666667,0,0)" xlink:href="#ay"/><use transform="matrix(0.006510416666666667,0,0,0.006510416666666667,8.18359375,0)" xlink:href="#aD"/><use transform="matrix(0.006510416666666667,0,0,0.006510416666666667,11.412760416666668,0)" xlink:href="#aD"/></g><g id="y"><use transform="matrix(0.006510416666666667,0,0,0.006510416666666667,0,0)" xlink:href="#as"/><use transform="matrix(0.006510416666666667,0,0,0.006510416666666667,7.884114583333334,0)" xlink:href="#aC"/><use transform="matrix(0.006510416666666667,0,0,0.006510416666666667,15.885416666666668,0)" xlink:href="#as"/><use transform="matrix(0.006510416666666667,0,0,0.006510416666666667,23.76953125,0)" xlink:href="#ar"/></g><g id="z"><use transform="matrix(0.006510416666666667,0,0,0.006510416666666667,0,0)" xlink:href="#bg"/><use transform="matrix(0.006510416666666667,0,0,0.006510416666666667,4.583333333333334,0)" xlink:href="#aC"/><use transform="matrix(0.006510416666666667,0,0,0.006510416666666667,12.584635416666668,0)" xlink:href="#aq"/><use transform="matrix(0.006510416666666667,0,0,0.006510416666666667,17.083333333333336,0)" xlink:href="#bl"/><use transform="matrix(0.006510416666666667,0,0,0.006510416666666667,23.22916666666667,0)" xlink:href="#aq"/><use transform="matrix(0.006510416666666667,0,0,0.006510416666666667,28.033854166666675,0)" xlink:href="#ar"/><use transform="matrix(0.006510416666666667,0,0,0.006510416666666667,35.70963541666667,0)" xlink:href="#at"/><use transform="matrix(0.006510416666666667,0,0,0.006510416666666667,40.08463541666667,0)" xlink:href="#ap"/><use transform="matrix(0.006510416666666667,0,0,0.006510416666666667,47.97526041666667,0)" xlink:href="#aq"/><use transform="matrix(0.006510416666666667,0,0,0.006510416666666667,53.20963541666667,0)" xlink:href="#as"/></g><path d="M1096 418H916v-591h-14C865-111 790 24 577 24c-279 0-473-224-473-580 0-354 195-576 474-576 218 0 287 134 324 193h20v-179h174V418zM604-137c203 0 314-172 314-421 0-247-108-413-314-413-212 0-317 181-317 413 0 235 108 421 317 421" id="bm"/><path d="M180 0v-1490h510c348 0 508 194 508 460 0 198-88 351-276 417L1256 0h-220L726-579c-117 2-238 0-356 1V0H180zm190-747h312c235 0 327-108 327-283 0-177-92-293-329-293H370v576" id="bn"/><g id="A"><use transform="matrix(0.006510416666666667,0,0,0.006510416666666667,0,0)" xlink:href="#X"/><use transform="matrix(0.006510416666666667,0,0,0.006510416666666667,4.798177083333333,0)" xlink:href="#U"/><use transform="matrix(0.006510416666666667,0,0,0.006510416666666667,12.571614583333332,0)" xlink:href="#bm"/><use transform="matrix(0.006510416666666667,0,0,0.006510416666666667,20.735677083333332,0)" xlink:href="#aW"/><use transform="matrix(0.006510416666666667,0,0,0.006510416666666667,28.61979166666666,0)" xlink:href="#U"/><use transform="matrix(0.006510416666666667,0,0,0.006510416666666667,36.393229166666664,0)" xlink:href="#aG"/><use transform="matrix(0.006510416666666667,0,0,0.006510416666666667,43.43098958333333,0)" xlink:href="#aO"/><use transform="matrix(0.006510416666666667,0,0,0.006510416666666667,47.79296874999999,0)" xlink:href="#bn"/><use transform="matrix(0.006510416666666667,0,0,0.006510416666666667,56.17838541666666,0)" xlink:href="#U"/><use transform="matrix(0.006510416666666667,0,0,0.006510416666666667,63.95182291666666,0)" xlink:href="#aO"/><use transform="matrix(0.006510416666666667,0,0,0.006510416666666667,68.31380208333333,0)" xlink:href="#aW"/><use transform="matrix(0.006510416666666667,0,0,0.006510416666666667,76.19791666666666,0)" xlink:href="#X"/><use transform="matrix(0.006510416666666667,0,0,0.006510416666666667,81.42578124999999,0)" xlink:href="#T"/><use transform="matrix(0.006510416666666667,0,0,0.006510416666666667,89.30338541666666,0)" xlink:href="#Z"/><use transform="matrix(0.006510416666666667,0,0,0.006510416666666667,94.16666666666666,0)" xlink:href="#aa"/></g><g id="B"><use transform="matrix(0.006510416666666667,0,0,0.006510416666666667,0,0)" xlink:href="#aF"/><use transform="matrix(0.006510416666666667,0,0,0.006510416666666667,7.486979166666667,0)" xlink:href="#aG"/><use transform="matrix(0.006510416666666667,0,0,0.006510416666666667,14.524739583333334,0)" xlink:href="#aM"/><use transform="matrix(0.006510416666666667,0,0,0.006510416666666667,21.842447916666668,0)" xlink:href="#aR"/><use transform="matrix(0.006510416666666667,0,0,0.006510416666666667,29.186197916666668,0)" xlink:href="#aS"/><use transform="matrix(0.006510416666666667,0,0,0.006510416666666667,37.180989583333336,0)" xlink:href="#X"/><use transform="matrix(0.006510416666666667,0,0,0.006510416666666667,42.40885416666667,0)" xlink:href="#bn"/><use transform="matrix(0.006510416666666667,0,0,0.006510416666666667,50.79427083333334,0)" xlink:href="#U"/><use transform="matrix(0.006510416666666667,0,0,0.006510416666666667,58.56770833333335,0)" xlink:href="#aO"/><use transform="matrix(0.006510416666666667,0,0,0.006510416666666667,62.9296875,0)" xlink:href="#aW"/><use transform="matrix(0.006510416666666667,0,0,0.006510416666666667,70.81380208333334,0)" xlink:href="#X"/><use transform="matrix(0.006510416666666667,0,0,0.006510416666666667,76.04166666666667,0)" xlink:href="#T"/><use transform="matrix(0.006510416666666667,0,0,0.006510416666666667,83.91927083333334,0)" xlink:href="#aN"/><use transform="matrix(0.006510416666666667,0,0,0.006510416666666667,92.47395833333334,0)" xlink:href="#aO"/><use transform="matrix(0.006510416666666667,0,0,0.006510416666666667,96.90104166666669,0)" xlink:href="#aF"/><use transform="matrix(0.006510416666666667,0,0,0.006510416666666667,104.38802083333336,0)" xlink:href="#aO"/><use transform="matrix(0.006510416666666667,0,0,0.006510416666666667,108.75000000000003,0)" xlink:href="#aW"/><use transform="matrix(0.006510416666666667,0,0,0.006510416666666667,116.63411458333336,0)" xlink:href="#aG"/><use transform="matrix(0.006510416666666667,0,0,0.006510416666666667,123.67187500000003,0)" xlink:href="#Z"/><use transform="matrix(0.006510416666666667,0,0,0.006510416666666667,128.53515625000003,0)" xlink:href="#aa"/></g><g id="D"><use transform="matrix(0.006510416666666667,0,0,0.006510416666666667,0,0)" xlink:href="#aF"/><use transform="matrix(0.006510416666666667,0,0,0.006510416666666667,7.486979166666667,0)" xlink:href="#aG"/><use transform="matrix(0.006510416666666667,0,0,0.006510416666666667,14.524739583333334,0)" xlink:href="#aM"/><use transform="matrix(0.006510416666666667,0,0,0.006510416666666667,21.842447916666668,0)" xlink:href="#aR"/><use transform="matrix(0.006510416666666667,0,0,0.006510416666666667,29.186197916666668,0)" xlink:href="#aS"/><use transform="matrix(0.006510416666666667,0,0,0.006510416666666667,37.180989583333336,0)" xlink:href="#X"/><use transform="matrix(0.006510416666666667,0,0,0.006510416666666667,42.40885416666667,0)" xlink:href="#bn"/><use transform="matrix(0.006510416666666667,0,0,0.006510416666666667,50.79427083333334,0)" xlink:href="#U"/><use transform="matrix(0.006510416666666667,0,0,0.006510416666666667,58.56770833333335,0)" xlink:href="#aO"/><use transform="matrix(0.006510416666666667,0,0,0.006510416666666667,62.9296875,0)" xlink:href="#aW"/><use transform="matrix(0.006510416666666667,0,0,0.006510416666666667,70.81380208333334,0)" xlink:href="#X"/><use transform="matrix(0.006510416666666667,0,0,0.006510416666666667,76.04166666666667,0)" xlink:href="#T"/><use transform="matrix(0.006510416666666667,0,0,0.006510416666666667,83.91927083333334,0)" xlink:href="#aN"/><use transform="matrix(0.006510416666666667,0,0,0.006510416666666667,92.47395833333334,0)" xlink:href="#aO"/><use transform="matrix(0.006510416666666667,0,0,0.006510416666666667,96.90104166666669,0)" xlink:href="#aF"/><use transform="matrix(0.006510416666666667,0,0,0.006510416666666667,104.38802083333336,0)" xlink:href="#aO"/><use transform="matrix(0.006510416666666667,0,0,0.006510416666666667,108.75000000000003,0)" xlink:href="#aW"/><use transform="matrix(0.006510416666666667,0,0,0.006510416666666667,116.63411458333336,0)" xlink:href="#aG"/><use transform="matrix(0.006510416666666667,0,0,0.006510416666666667,123.67187500000003,0)" xlink:href="#Z"/><use transform="matrix(0.006510416666666667,0,0,0.006510416666666667,128.53515625000003,0)" xlink:href="#aa"/></g><g id="E"><use transform="matrix(0.006510416666666667,0,0,0.006510416666666667,0,0)" xlink:href="#ao"/><use transform="matrix(0.006510416666666667,0,0,0.006510416666666667,7.623697916666667,0)" xlink:href="#aC"/><use transform="matrix(0.006510416666666667,0,0,0.006510416666666667,15.625,0)" xlink:href="#aw"/><use transform="matrix(0.006510416666666667,0,0,0.006510416666666667,27.3046875,0)" xlink:href="#az"/><use transform="matrix(0.006510416666666667,0,0,0.006510416666666667,35.47526041666667,0)" xlink:href="#aD"/><use transform="matrix(0.006510416666666667,0,0,0.006510416666666667,38.704427083333336,0)" xlink:href="#ar"/><use transform="matrix(0.006510416666666667,0,0,0.006510416666666667,46.380208333333336,0)" xlink:href="#at"/><use transform="matrix(0.006510416666666667,0,0,0.006510416666666667,50.625,0)" xlink:href="#ar"/><use transform="matrix(0.006510416666666667,0,0,0.006510416666666667,58.30078125,0)" xlink:href="#bc"/></g><g id="F"><use transform="matrix(0.006510416666666667,0,0,0.006510416666666667,0,0)" xlink:href="#aq"/><use transform="matrix(0.006510416666666667,0,0,0.006510416666666667,4.8046875,0)" xlink:href="#ar"/><use transform="matrix(0.006510416666666667,0,0,0.006510416666666667,12.48046875,0)" xlink:href="#at"/><use transform="matrix(0.006510416666666667,0,0,0.006510416666666667,16.85546875,0)" xlink:href="#ap"/><use transform="matrix(0.006510416666666667,0,0,0.006510416666666667,24.74609375,0)" xlink:href="#aq"/><use transform="matrix(0.006510416666666667,0,0,0.006510416666666667,29.98046875,0)" xlink:href="#as"/><use transform="matrix(0.006510416666666667,0,0,0.006510416666666667,37.864583333333336,0)" xlink:href="#ar"/><use transform="matrix(0.006510416666666667,0,0,0.006510416666666667,45.540364583333336,0)" xlink:href="#bc"/></g><g id="G"><use transform="matrix(0.006510416666666667,0,0,0.006510416666666667,0,0)" xlink:href="#aP"/><use transform="matrix(0.006510416666666667,0,0,0.006510416666666667,3.229166666666667,0)" xlink:href="#T"/><use transform="matrix(0.006510416666666667,0,0,0.006510416666666667,11.106770833333334,0)" xlink:href="#ao"/><use transform="matrix(0.006510416666666667,0,0,0.006510416666666667,18.73046875,0)" xlink:href="#aC"/><use transform="matrix(0.006510416666666667,0,0,0.006510416666666667,26.731770833333336,0)" xlink:href="#aw"/><use transform="matrix(0.006510416666666667,0,0,0.006510416666666667,38.411458333333336,0)" xlink:href="#az"/><use transform="matrix(0.006510416666666667,0,0,0.006510416666666667,46.58203125,0)" xlink:href="#aD"/><use transform="matrix(0.006510416666666667,0,0,0.006510416666666667,49.811197916666664,0)" xlink:href="#ar"/><use transform="matrix(0.006510416666666667,0,0,0.006510416666666667,57.48697916666667,0)" xlink:href="#at"/><use transform="matrix(0.006510416666666667,0,0,0.006510416666666667,61.73177083333332,0)" xlink:href="#ar"/><use transform="matrix(0.006510416666666667,0,0,0.006510416666666667,69.40755208333333,0)" xlink:href="#bc"/></g></defs></g></svg>